<?xml version="1.0" standalone="no"?><!DOCTYPE svg PUBLIC "-//W3C//DTD SVG 1.1//EN" "http://www.w3.org/Graphics/SVG/1.1/DTD/svg11.dtd"><svg t="1684541068322" class="icon" viewBox="0 0 1024 1024" version="1.1" xmlns="http://www.w3.org/2000/svg" p-id="13466" xmlns:xlink="http://www.w3.org/1999/xlink" width="200" height="200"><path d="M200 888h624V460H200v428z m276-287c0-19.9 16.1-36 36-36s36 16.1 36 36v144c0 19.9-16.1 36-36 36s-36-16.1-36-36V601z" fill="#FFEB3B" p-id="13467"></path><path d="M824 388H371v36c0 19.9-16.1 36-36 36h489v428H200V460h135c-19.9 0-36-16.1-36-36v-36h-99c-39.7 0-72 32.3-72 72v428c0 39.7 32.3 72 72 72h624c39.7 0 72-32.3 72-72V460c0-39.7-32.3-72-72-72z" fill="#FF9800" p-id="13468"></path><path d="M512 64c-117.4 0-213 95.6-213 213v147c0 19.9 16.1 36 36 36s36-16.1 36-36V277c0-77.7 63.3-141 141-141s141 63.3 141 141c0 19.9 16.1 36 36 36s36-16.1 36-36c0-117.4-95.6-213-213-213zM512 781c19.9 0 36-16.1 36-36V601c0-19.9-16.1-36-36-36s-36 16.1-36 36v144c0 19.9 16.1 36 36 36z" fill="#FF5722" p-id="13469"></path></svg>