<svg width="307.382" height="249.829" viewBox="0 0 307.382 249.829"
  xmlns="http://www.w3.org/2000/svg">
  <g id="svgGroup" stroke-linecap="round" fill-rule="evenodd" font-size="9pt" stroke="#000" stroke-width="0.25mm" fill="#000" style="stroke:#000;stroke-width:0.25mm;fill:#000">
    <path d="M 141.266 243.288 L 147.806 218.763 A 32.398 32.398 0 0 0 151.615 220.641 Q 153.591 221.468 155.901 222.184 A 60.64 60.64 0 0 0 157.616 222.687 A 44.19 44.19 0 0 0 165.067 224.053 A 56.761 56.761 0 0 0 170.696 224.322 Q 184.43 224.322 195.221 215.493 Q 204.3 208.065 212.685 188.599 A 191.556 191.556 0 0 0 215.822 180.831 L 223.343 161.211 L 207.647 161.211 L 141.266 11.772 L 167.426 0 L 230.864 141.591 L 280.241 1.308 L 307.382 11.772 L 244.925 182.466 A 234.549 234.549 0 0 1 238.212 199.099 Q 234.607 207.076 230.792 213.578 A 100.912 100.912 0 0 1 224.324 223.341 A 79.358 79.358 0 0 1 214.913 233.84 Q 207.759 240.448 199.799 243.942 Q 186.392 249.828 170.042 249.828 A 83.121 83.121 0 0 1 161.928 249.453 Q 157.013 248.97 152.875 247.866 A 66.468 66.468 0 0 1 148.183 246.44 Q 144.056 245.005 141.266 243.288 Z M 128.84 10.137 L 120.011 34.989 Q 110.855 30.411 102.517 28.286 A 67.175 67.175 0 0 0 92.567 26.567 A 86.18 86.18 0 0 0 84.041 26.16 A 51.958 51.958 0 0 0 60.325 31.531 A 52.751 52.751 0 0 0 45.619 42.674 A 54.725 54.725 0 0 0 32.65 66.722 Q 30.086 76.467 30.086 88.29 A 82.378 82.378 0 0 0 32.392 108.106 A 70.142 70.142 0 0 0 36.626 120.336 A 60.703 60.703 0 0 0 46.142 135.304 A 53.22 53.22 0 0 0 54.775 143.226 Q 66.383 151.728 82.079 151.728 A 92.936 92.936 0 0 0 91.582 151.27 Q 98.092 150.599 103.334 148.949 A 103.323 103.323 0 0 0 112.49 145.556 Q 117.195 143.569 122.221 140.978 A 163.646 163.646 0 0 0 122.3 140.937 L 131.456 165.789 A 93.317 93.317 0 0 1 116.359 172.351 A 112.131 112.131 0 0 1 108.73 174.618 Q 96.337 177.837 80.617 177.888 A 156.227 156.227 0 0 1 80.117 177.888 A 87.647 87.647 0 0 1 57.101 174.979 A 72.184 72.184 0 0 1 37.771 166.607 Q 19.622 155.325 9.812 135.215 A 96.013 96.013 0 0 1 1.188 106.403 A 124.328 124.328 0 0 1 0.002 88.944 Q 0.002 64.419 9.976 44.145 Q 19.949 23.871 38.588 11.936 A 75.431 75.431 0 0 1 70.202 0.749 A 96.82 96.82 0 0 1 82.406 0 A 135.08 135.08 0 0 1 94.338 0.501 Q 100.454 1.044 105.796 2.177 A 78.384 78.384 0 0 1 107.749 2.616 Q 118.703 5.232 128.84 10.137 Z" vector-effect="non-scaling-stroke"/>
  </g>
</svg>